# xmcd
#
# Track frame offsets:
# 150
# 10061
# 22234
# 26113
# 40678
# 49835
# 62242
# 73479
# 82974
# 92859
# 107996
# 119519
# 134188
# 145165
# 184378
# 196447
# 213950
# 226019
# 238608
# 253459
#
# Disc length: 3551 seconds
#
#
# Revision: 0
# Processed by: cddbd v1.5.2PL0 Copyright (c) Steve Scherf et al.
# Submitted via: FreeRIP 2.951 
#
DISCID=360ddd14
DTITLE=It's All About The Blues - It's All About The Blues
DYEAR=1900
DGENRE=Blues
TTITLE0=Dimples - John Lee Hooker
TTITLE1=Brown Skinned Woman - Howlin' Wolf
TTITLE2=Bring Me Li'l Water Silvy - Leadbelly
TTITLE3=Baby Please Don't Go - Big Bill Broonzy
TTITLE4=How Long Blues - Memphis Slim
TTITLE5=Overhead Blues - Jack Dupree
TTITLE6=Jinx Blues - Big Joe Williams
TTITLE7=Everyday I Have The Blues - Lowell Fulson
TTITLE8=Have A Ball - Jimmy Witherspoon
TTITLE9=New Car Blues - Lightnin' Hopkins
TTITLE10=Dissatisfied - Muddy Waters
TTITLE11=Ham and Eggs - Sonny Terry
TTITLE12=In The Moonlight - Jimmy Rushing
TTITLE13=All the Blues All at the Time - Ike Turner
TTITLE14=Trouble Blues - Charles Brown
TTITLE15=Atlanta Rag - Cow Cow Davenport
TTITLE16=Face In The Crowd - Brownie McGhee
TTITLE17=Pratt City Blues - Jabo Williams
TTITLE18=Out On A Limb - Roosevelt Sykes
TTITLE19=I Wonder Why - Arbee Stidham
EXTD=
EXTT0=
EXTT1=
EXTT2=
EXTT3=
EXTT4=
EXTT5=
EXTT6=
EXTT7=
EXTT8=
EXTT9=
EXTT10=
EXTT11=
EXTT12=
EXTT13=
EXTT14=
EXTT15=
EXTT16=
EXTT17=
EXTT18=
EXTT19=
PLAYORDER=
